<svg xmlns="http://www.w3.org/2000/svg" width="213.748" height="72.678" viewBox="0 0 213.748 72.678">
  <g id="Path_337" data-name="Path 337" fill="#fbe0e0">
    <path d="M 186.4247741699219 71.67772674560547 L 10.15560340881348 71.67772674560547 C 5.107186794281006 71.67772674560547 0.9999921917915344 67.40125274658203 0.9999921917915344 62.14472961425781 L 0.9999921917915344 10.5330057144165 C 0.9999921917915344 5.276478290557861 5.107186794281006 1.000006079673767 10.15560340881348 1.000006079673767 L 186.4174499511719 1.000006079673767 C 186.4609985351562 1.047894716262817 186.5090942382812 1.100775957107544 186.5616302490234 1.158533811569214 C 192.090576171875 7.23708963394165 196.9663848876953 12.89586734771729 201.0536346435547 17.97775650024414 C 211.2126770019531 30.60896873474121 212.7440338134766 35.10588836669922 212.748046875 36.66437149047852 C 212.706298828125 38.20580673217773 210.9279479980469 42.84723281860352 199.5446929931641 56.63142395019531 C 193.6808013916016 63.73213958740234 187.7874298095703 70.19403839111328 186.4247741699219 71.67772674560547 Z" stroke="none"/>
    <path d="M 10.15560913085938 2.000007629394531 C 5.6585693359375 2.000007629394531 1.999984741210938 5.827896118164062 1.999984741210938 10.53300476074219 L 1.999984741210938 62.14472961425781 C 1.999984741210938 66.84983825683594 5.6585693359375 70.67772674560547 10.15560913085938 70.67772674560547 L 185.9852294921875 70.67772674560547 C 187.7537384033203 68.74599456787109 193.255615234375 62.67791748046875 198.7929077148438 55.9713134765625 C 202.6224670410156 51.33306121826172 205.6732177734375 47.35131072998047 207.8604125976562 44.13669967651367 C 211.3783874511719 38.9661750793457 211.7292938232422 37.11948394775391 211.7479400634766 36.65154266357422 C 211.74072265625 36.06652450561523 211.3907318115234 34.24565505981445 208.4284973144531 29.6461181640625 C 206.4912109375 26.6380615234375 203.7479095458984 22.92328262329102 200.2747955322266 18.60497665405273 C 196.2380981445312 13.58592224121094 191.4275512695312 7.999893188476562 185.9751434326172 2.000007629394531 L 10.15560913085938 2.000007629394531 M 10.15560913085938 7.62939453125e-06 L 186.8632202148438 7.62939453125e-06 C 186.853515625 0.04114532470703125 213.7614440917969 28.99250793457031 213.748046875 36.67625427246094 C 213.589599609375 43.80864715576172 186.869873046875 72.67156219482422 186.8632202148438 72.67772674560547 L 10.15560913085938 72.67772674560547 C 4.546798706054688 72.67772674560547 -1.52587890625e-05 67.96195220947266 -1.52587890625e-05 62.14472961425781 L -1.52587890625e-05 10.53300476074219 C -1.52587890625e-05 4.715782165527344 4.546798706054688 7.62939453125e-06 10.15560913085938 7.62939453125e-06 Z" stroke="none" fill="#ddd"/>
  </g>
</svg>
