<svg xmlns="http://www.w3.org/2000/svg" width="282.854" height="41" viewBox="0 0 282.854 41">
  <g id="Path_342" data-name="Path 342" fill="#fbe0e0">
    <path d="M 244.1628570556641 40.0000114440918 L 11.24455451965332 40.0000114440918 C 5.59569787979126 40.0000114440918 1.000019192695618 35.51404571533203 1.000019192695618 30.0000114440918 L 1.000019192695618 11.0000114440918 C 1.000019192695618 5.48597526550293 5.59569787979126 1.000011205673218 11.24455451965332 1.000011205673218 L 244.1111755371094 1.000011205673218 C 244.1227111816406 1.004717469215393 244.1342468261719 1.009407758712769 244.1458435058594 1.014118313789368 C 244.2830963134766 1.069903969764709 244.4854431152344 1.151404023170471 244.7468719482422 1.256725430488586 C 252.8153839111328 4.507046699523926 259.8363037109375 7.52922534942627 265.6146850585938 10.23929691314697 C 270.5401611328125 12.54933261871338 274.4339599609375 14.57515430450439 277.1878356933594 16.26051139831543 C 278.7594909667969 17.22229766845703 279.9660339355469 18.07736778259277 280.7740173339844 18.80193901062012 C 281.8367309570312 19.75494003295898 281.8545227050781 20.1622257232666 281.8545837402344 20.16622543334961 C 281.8546142578125 20.17061805725098 281.8464965820312 20.61979675292969 280.6159362792969 21.71497535705566 C 279.6999816894531 22.53018951416016 278.33251953125 23.50015449523926 276.551513671875 24.59786796569824 C 273.4685668945312 26.49811744689941 269.1627197265625 28.77590370178223 263.753662109375 31.36790466308594 C 254.6392822265625 35.73554992675781 245.4184722900391 39.54498672485352 244.1628570556641 40.0000114440918 Z" stroke="none"/>
    <path d="M 11.2445068359375 2.000007629394531 C 6.147064208984375 2.000007629394531 1.999969482421875 6.037391662597656 1.999969482421875 11.00000762939453 L 1.999969482421875 30.00000762939453 C 1.999969482421875 34.96262359619141 6.147064208984375 39.00000762939453 11.2445068359375 39.00000762939453 L 243.9810943603516 39.00000762939453 C 245.6222229003906 38.37378692626953 254.0035095214844 34.89651870727539 262.5121765136719 30.85235595703125 C 267.6762084960938 28.39789199829102 271.8818359375 26.21327781677246 275.01220703125 24.35923957824707 C 276.8048095703125 23.29750823974609 278.2373352050781 22.34735488891602 279.2698364257812 21.53520011901855 C 280.1159362792969 20.86969757080078 280.5287780761719 20.4264030456543 280.7245788574219 20.17601585388184 C 280.5420227050781 19.95093536376953 280.1760864257812 19.56860160827637 279.4622192382812 19.00993156433105 C 278.5387878417969 18.28723907470703 277.259521484375 17.44696998596191 275.6599426269531 16.51254653930664 C 272.8345642089844 14.86197090148926 268.9972534179688 12.9091625213623 264.2546691894531 10.70831680297852 C 258.6734008789062 8.118278503417969 251.9844055175781 5.250431060791016 244.3734436035156 2.184394836425781 C 244.1920776367188 2.111312866210938 244.0389556884766 2.049633026123047 243.9161529541016 2.000007629394531 L 11.2445068359375 2.000007629394531 M 11.2445068359375 7.62939453125e-06 L 244.3131713867188 7.62939453125e-06 C 244.29296875 0.0371246337890625 282.7838134765625 15.0644702911377 282.8544311523438 20.1523551940918 C 282.9250793457031 25.24023056030273 244.3951416015625 41.12113952636719 244.3131713867188 41.00000762939453 L 11.2445068359375 41.00000762939453 C 5.03436279296875 41.00000762939453 -3.0517578125e-05 36.07512283325195 -3.0517578125e-05 30.00000762939453 L -3.0517578125e-05 11.00000762939453 C -3.0517578125e-05 4.924854278564453 5.03436279296875 7.62939453125e-06 11.2445068359375 7.62939453125e-06 Z" stroke="none" fill="#ddd"/>
  </g>
</svg>
